<?xml version="1.0" encoding="UTF-8" standalone="no"?>
<!DOCTYPE svg PUBLIC "-//W3C//DTD SVG 1.1//EN" "http://www.w3.org/Graphics/SVG/1.1/DTD/svg11.dtd">
<svg width="100%" height="100%" viewBox="0 0 289 60" version="1.1" xmlns="http://www.w3.org/2000/svg" xmlns:xlink="http://www.w3.org/1999/xlink" xml:space="preserve" xmlns:serif="http://www.serif.com/" style="fill-rule:evenodd;clip-rule:evenodd;stroke-linejoin:round;stroke-miterlimit:2;">
    <g>
        <path d="M52.383,53.342L9.314,44.098C9.109,44.051 8.982,43.845 9.03,43.639C9.042,43.587 9.065,43.541 9.097,43.498L38.568,10.46C38.7,10.315 38.925,10.304 39.071,10.436C39.112,10.473 39.143,10.519 39.164,10.569L52.815,52.85C52.87,53.062 52.741,53.277 52.529,53.333C52.481,53.345 52.432,53.348 52.383,53.342ZM65.926,44.372C54.833,32.687 46.714,18.505 42.252,3.023C41.925,1.765 40.789,0.887 39.488,0.889L27.245,0.889C25.951,0.905 24.824,1.775 24.484,3.023C20.021,18.505 11.901,32.687 0.809,44.372C-0.08,45.321 -0.254,46.735 0.376,47.873L6.498,58.539C7.141,59.652 8.442,60.21 9.693,59.907C17.439,57.992 25.387,57.018 33.367,57.006C41.348,56.991 49.3,57.964 57.041,59.907C58.294,60.236 59.61,59.673 60.238,58.54L66.359,47.873C66.983,46.735 66.81,45.324 65.926,44.372Z" style="fill:rgb(235,105,55);fill-rule:nonzero;"/>
        <path d="M101.012,33.892L106.701,20.673L112.443,33.892L101.012,33.892ZM103.393,10.922L86.327,49.928L94.291,49.928L98.19,40.827L115.31,40.827L119.156,49.928L127.284,49.928L110.218,10.922L103.393,10.922Z" style="fill:rgb(0,116,147);fill-rule:nonzero;"/>
        <path d="M140.771,11.192L133.079,11.192L133.079,49.926L160.602,49.926L160.602,42.831L140.771,42.831L140.771,11.192Z" style="fill:rgb(0,116,147);fill-rule:nonzero;"/>
        <path d="M203.456,33.892L209.144,20.673L214.886,33.892L203.456,33.892ZM205.835,10.922L188.77,49.928L196.68,49.928L200.58,40.827L217.699,40.827L221.544,49.928L229.673,49.928L212.605,10.922L205.835,10.922Z" style="fill:rgb(0,116,147);fill-rule:nonzero;"/>
        <rect x="236.117" y="11.192" width="7.64" height="38.734" style="fill:rgb(0,116,147);fill-rule:nonzero;"/>
        <path d="M262.229,18.289L271.331,18.289C276.041,18.289 278.644,20.348 278.644,24.085C278.644,27.661 275.882,29.937 271.385,29.937L262.229,29.937L262.229,18.289ZM277.772,35.408C283.299,33.62 286.44,29.395 286.44,23.653C286.44,15.959 280.859,11.192 271.921,11.192L254.591,11.192L254.591,49.926L262.229,49.926L262.229,36.762L269.706,36.762L279.023,49.926L288.125,49.926L277.772,35.408Z" style="fill:rgb(0,116,147);fill-rule:nonzero;"/>
        <path d="M158.271,11.192L158.271,18.56L170.185,18.56L170.185,49.926L178.038,49.926L178.038,18.56L189.953,18.56L189.953,11.192L158.271,11.192Z" style="fill:rgb(0,116,147);fill-rule:nonzero;"/>
    </g>
</svg>
